<svg xmlns="http://www.w3.org/2000/svg" xml:space="preserve" style="enable-background:new 0 0 2000 2000" viewBox="0 0 2000 2000"><path d="M757.66 1248.78c0-6.31-.87-10.97-2.6-14.01-1.73-3.03-5.19-4.54-10.39-4.54h-3.71v-3.71h79.03c10.51 0 15.77 4.95 15.77 14.84v13.91h-3.71c0-14.22-7.73-21.33-23.19-21.33h-34.51v48.23h50.09v7.42h-50.09v51.94h32.47c8.53 0 15.21-1.55 20.04-4.64 4.82-3.09 8.65-8.35 11.5-15.77l3.71.93-6.49 17.62c-2.23 6.19-6.86 9.28-13.91 9.28h-64v-100.17zM884.92 1344.78c-6.93-4.02-11.84-9.99-14.75-17.9-2.91-7.91-4.36-18.18-4.36-30.8v-47.31c0-6.31-.87-10.97-2.6-14.01-1.73-3.03-5.19-4.54-10.39-4.54h-3.71v-3.71h16.7c4.57 0 8.01.59 10.3 1.76 2.29 1.18 3.92 3.31 4.92 6.4.99 3.09 1.48 7.79 1.48 14.1v52.87c0 13.73 2.53 24.12 7.61 31.17 5.07 7.05 13.48 10.58 25.23 10.58 9.4 0 16.85-1.67 22.35-5.01s9.43-8.41 11.78-15.21c2.35-6.8 3.53-15.83 3.53-27.08v-69.57h7.42v69.57c0 12.86-1.36 23.22-4.08 31.07-2.72 7.86-7.51 13.76-14.38 17.72-6.86 3.96-16.48 5.94-28.85 5.94-11.87-.01-21.27-2.01-28.2-6.04zM1059.03 1344.97c-4.89-3.9-10.3-10.91-16.23-21.06l-18.55-31.54h-12.99v56.58h-16.7v-100.18c0-6.31-.87-10.97-2.6-14.01-1.73-3.03-5.19-4.54-10.39-4.54h-3.71v-3.71h48.23c11.75 0 22.42 2.32 32 6.96 9.58 4.64 14.38 13.45 14.38 26.44 0 16.45-9.9 26.96-29.68 31.54l19.48 32.47c4.57 7.67 8.69 13.02 12.34 16.05 3.65 3.03 7.88 4.79 12.71 5.29v3.71c-1.11.49-2.69.93-4.73 1.3-2.04.37-4.17.56-6.4.56-6.56-.02-12.28-1.96-17.16-5.86zm-21.34-61.87c4.51-1.86 8.35-4.76 11.5-8.72 3.15-3.96 4.73-8.78 4.73-14.47 0-6.06-1.58-11.1-4.73-15.12-3.15-4.02-6.99-6.98-11.5-8.9-4.52-1.92-8.69-2.88-12.52-2.88-4.33 0-8.97.62-13.91 1.85v49.16c4.95 1.24 9.58 1.85 13.91 1.85 3.83.01 8.01-.91 12.52-2.77zM1120.99 1344.14c-8.72-5.69-15.43-13.48-20.13-23.38-4.7-9.89-7.05-20.9-7.05-33.02 0-12.12 2.35-23.13 7.05-33.02 4.7-9.89 11.41-17.68 20.13-23.38 8.72-5.69 18.83-8.53 30.33-8.53s21.61 2.85 30.33 8.53c8.72 5.69 15.43 13.48 20.13 23.38 4.7 9.9 7.05 20.9 7.05 33.02 0 12.12-2.35 23.13-7.05 33.02-4.7 9.9-11.41 17.69-20.13 23.38-8.72 5.69-18.83 8.53-30.33 8.53s-21.61-2.85-30.33-8.53zm51.2-5.94c5.87-4.7 10.36-11.35 13.45-19.94 3.09-8.6 4.64-18.77 4.64-30.52s-1.55-21.92-4.64-30.52c-3.09-8.6-7.58-15.24-13.45-19.94-5.88-4.7-12.83-7.05-20.87-7.05-8.04 0-15 2.35-20.87 7.05-5.88 4.7-10.36 11.35-13.45 19.94-3.09 8.6-4.64 18.77-4.64 30.52s1.55 21.92 4.64 30.52c3.09 8.6 7.57 15.24 13.45 19.94 5.87 4.7 12.83 7.05 20.87 7.05 8.04 0 14.99-2.35 20.87-7.05zM1235.73 1248.78c0-6.31-.87-10.97-2.6-14.01-1.73-3.03-5.19-4.54-10.39-4.54h-3.71v-3.71h48.23c11.87 0 22.57 2.54 32.09 7.61 9.52 5.07 14.28 14.9 14.28 29.5 0 9.65-2.47 17.07-7.42 22.26-4.95 5.19-10.48 8.66-16.6 10.39-6.12 1.73-11.72 2.6-16.79 2.6h-20.41v50.09h-16.7v-100.19zm43.22 40.54c4.45-2.04 8.26-5.29 11.41-9.74 3.15-4.45 4.73-10.08 4.73-16.88 0-6.8-1.58-12.43-4.73-16.88-3.15-4.45-6.96-7.7-11.41-9.74s-8.66-3.06-12.61-3.06c-4.33 0-8.97.62-13.91 1.85v55.66c4.95 1.24 9.58 1.85 13.91 1.85 3.96 0 8.16-1.02 12.61-3.06zM1338.13 1248.78c0-6.31-.87-10.97-2.6-14.01-1.73-3.03-5.19-4.54-10.39-4.54h-3.71v-3.71h79.03c10.51 0 15.77 4.95 15.77 14.84v13.91h-3.71c0-14.22-7.73-21.33-23.19-21.33h-34.51v48.23h50.09v7.42h-50.09v51.94h32.47c8.53 0 15.21-1.55 20.04-4.64 4.82-3.09 8.66-8.35 11.5-15.77l3.71.93-6.49 17.62c-2.23 6.19-6.86 9.28-13.91 9.28h-64v-100.17zM852.96 1417.46v-1.54h16.22v17.43c-1.97 1.97-4.37 3.5-7.21 4.61-2.84 1.11-6.01 1.67-9.52 1.67-3.59 0-6.9-.59-9.93-1.76-3.04-1.17-5.68-2.82-7.95-4.93a22.573 22.573 0 0 1-5.29-7.4c-1.26-2.82-1.89-5.9-1.89-9.23s.63-6.41 1.89-9.23c1.26-2.82 3.02-5.29 5.29-7.4 2.26-2.11 4.91-3.76 7.95-4.94 3.03-1.17 6.35-1.76 9.93-1.76 1.54 0 3.22.11 5.03.32 1.82.21 3.56.5 5.22.86 1.67.36 3.08.8 4.23 1.31l-.32 3.59h-.38c-1.71-1.49-3.76-2.63-6.15-3.4-2.39-.77-4.94-1.15-7.63-1.15-4.02 0-7.54.91-10.58 2.72-3.03 1.82-5.39 4.36-7.08 7.63-1.69 3.27-2.53 7.08-2.53 11.44 0 4.36.84 8.17 2.53 11.44 1.69 3.27 4.05 5.81 7.08 7.63 3.03 1.82 6.56 2.72 10.58 2.72 2.48 0 4.78-.34 6.89-1.03 2.12-.68 3.94-1.67 5.48-2.95v-16.66h-11.86zM885.52 1416.3c0-3.29.59-6.36 1.76-9.2 1.17-2.84 2.82-5.32 4.94-7.43 2.11-2.11 4.59-3.76 7.43-4.94 2.84-1.17 5.91-1.76 9.2-1.76 3.29 0 6.36.59 9.2 1.76 2.84 1.18 5.32 2.82 7.43 4.94s3.76 4.59 4.94 7.43c1.17 2.84 1.76 5.91 1.76 9.2 0 3.29-.59 6.36-1.76 9.2-1.18 2.84-2.82 5.32-4.94 7.43s-4.59 3.76-7.43 4.93-5.91 1.76-9.2 1.76c-3.29 0-6.36-.59-9.2-1.76-2.84-1.17-5.32-2.82-7.43-4.93-2.12-2.11-3.76-4.59-4.94-7.43-1.17-2.84-1.76-5.9-1.76-9.2zm4.87 0c0 4.36.77 8.17 2.31 11.44 1.54 3.27 3.7 5.81 6.47 7.63 2.78 1.82 6 2.72 9.68 2.72 3.67 0 6.9-.91 9.68-2.72 2.78-1.82 4.94-4.37 6.47-7.66 1.54-3.29 2.31-7.09 2.31-11.41 0-4.31-.77-8.11-2.31-11.38-1.54-3.27-3.7-5.82-6.47-7.66-2.78-1.84-6-2.76-9.68-2.76-3.68 0-6.89.91-9.65 2.72-2.76 1.82-4.91 4.36-6.47 7.63-1.56 3.28-2.34 7.1-2.34 11.45zM947.24 1416.3c0-3.29.59-6.36 1.76-9.2 1.17-2.84 2.82-5.32 4.94-7.43 2.11-2.11 4.59-3.76 7.43-4.94 2.84-1.17 5.91-1.76 9.2-1.76 3.29 0 6.36.59 9.2 1.76 2.84 1.18 5.32 2.82 7.43 4.94 2.11 2.11 3.76 4.59 4.94 7.43 1.17 2.84 1.76 5.91 1.76 9.2 0 3.29-.59 6.36-1.76 9.2-1.18 2.84-2.82 5.32-4.94 7.43-2.11 2.11-4.59 3.76-7.43 4.93s-5.91 1.76-9.2 1.76c-3.29 0-6.36-.59-9.2-1.76-2.84-1.17-5.32-2.82-7.43-4.93-2.12-2.11-3.76-4.59-4.94-7.43-1.17-2.84-1.76-5.9-1.76-9.2zm4.87 0c0 4.36.77 8.17 2.31 11.44 1.54 3.27 3.7 5.81 6.47 7.63 2.78 1.82 6 2.72 9.68 2.72 3.67 0 6.9-.91 9.68-2.72 2.78-1.82 4.94-4.37 6.47-7.66 1.54-3.29 2.31-7.09 2.31-11.41 0-4.31-.77-8.11-2.31-11.38-1.54-3.27-3.7-5.82-6.47-7.66-2.78-1.84-6-2.76-9.68-2.76-3.68 0-6.89.91-9.65 2.72-2.76 1.82-4.91 4.36-6.47 7.63-1.56 3.28-2.34 7.1-2.34 11.45zM1012.17 1438.74v-44.87h14.1c4.96 0 9.27.94 12.95 2.82 3.67 1.88 6.54 4.5 8.59 7.85 2.05 3.36 3.08 7.27 3.08 11.76s-1.03 8.41-3.08 11.76c-2.05 3.36-4.91 5.97-8.59 7.85-3.68 1.88-7.99 2.82-12.95 2.82h-14.1zm14.1-43.33h-9.74v41.79h9.74c6.19 0 11.03-1.84 14.52-5.51 3.48-3.67 5.22-8.8 5.22-15.38s-1.74-11.71-5.22-15.38c-3.49-3.68-8.33-5.52-14.52-5.52zM1101.51 1438.74v-43.58c-.64 0-1.97.13-3.97.39l-12.56 1.6v-3.27h37.43v3.27l-12.56-1.6c-2.01-.26-3.33-.39-3.97-.39v43.58h-4.37zM1137.6 1393.87h8.59c4.53 0 8.04.95 10.54 2.85 2.5 1.9 3.75 4.56 3.75 7.98 0 2.65-.78 4.85-2.34 6.6-1.56 1.75-3.81 2.93-6.76 3.52v.39c2.82.56 5.13 1.88 6.92 3.97 1.8 2.09 3.14 4.68 4.04 7.75.81 2.82 1.61 5.01 2.4 6.57.79 1.56 1.67 2.68 2.63 3.36.96.68 2.1 1.18 3.43 1.47v.39h-2.63c-1.88 0-3.43-.34-4.65-1.03-1.22-.68-2.26-1.84-3.11-3.46-.86-1.62-1.67-3.87-2.44-6.73-1.24-4.4-2.88-7.52-4.94-9.36-2.05-1.84-4.55-2.76-7.5-2.76h-.38v-1.15h.38c6.88 0 10.32-3.16 10.32-9.48 0-6.24-3.23-9.36-9.68-9.36h-4.23v43.33h-4.36v-44.85zM1178.81 1438.74l17.24-44.87h3.97l17.24 44.87h-4.68l-7.95-21.02h-14.55l-6.6 21.02h-4.67zm17.69-41.53-5.96 18.97h13.52l-7.18-18.97h-.38zM1222.65 1393.87h4.81l17.5 39.87h.39l14.68-39.87h4.81l-20.38 45.76h-1.41l-20.4-45.76zM1279.62 1438.74v-44.87h19.55v3.14l-11.22-1.47c-1.97-.26-3.29-.39-3.97-.39v19.55c.55 0 1.88-.06 3.97-.19l10.51-.64v2.95l-10.51-.64c-2.09-.13-3.42-.19-3.97-.19v21.47c.77 0 2.11-.13 4.04-.38l11.34-1.47v3.14h-19.74zM1317.63 1393.87h4.36v43.58c.81 0 2.09-.13 3.85-.38l10.64-1.6v3.27h-18.84v-44.87z"/><path d="M1096.5 1516.45c-163.32 4.45-344.63 7.21-507.88 8.78l-8.67.1c-1.14-89.03-1.41-178.07-2.03-267.1-.79-238.55-.79-537.24 1.89-774.64l.09-8.92c77.08-.04 184.53 2.68 262.66 3.38 71.64 1.34 183.04 3.39 253.94 5.54l-63.48 1.7c-140.93 3.4-303.74 5.73-444.39 7.12l8.82-8.82c.45 32.36.9 96.8 1.11 129.11 2.01 286.58 1.77 617.78-1.15 903.75l-8.78-8.78c163.22 1.64 344.59 4.25 507.87 8.78z"/><path d="m588.63 988.66 202.89 11.36-202.89 11.35v-22.71zM1148.77 925.38c-7.15 4-14.75 7.56-22.77 10.7-22.69 8.86-48.01 13.31-75.97 13.31-28.64 0-55.07-4.69-79.28-14.08-24.22-9.37-45.36-22.5-63.44-39.38s-32.16-36.58-42.21-59.09c-10.07-22.5-15.09-47.06-15.09-73.66s5.02-51.15 15.09-73.66c10.05-22.51 24.13-42.2 42.21-59.09 18.08-16.88 39.22-30 63.44-39.38 24.21-9.38 50.64-14.08 79.28-14.08 12.28 0 25.66.87 40.16 2.57 14.5 1.71 28.4 4.01 41.69 6.91 13.31 2.9 24.56 6.39 33.78 10.48l-2.57 28.65h-3.06c-13.66-11.94-30.01-20.97-49.11-27.12-19.1-6.13-39.39-9.2-60.88-9.2-32.07 0-60.19 7.25-84.41 21.74-24.22 14.5-43.06 34.8-56.53 60.87-13.47 26.1-20.2 56.53-20.2 91.32 0 34.79 6.73 65.22 20.2 91.32 13.47 26.09 32.31 46.38 56.53 60.87 24.21 14.5 52.34 21.74 84.41 21.74 19.78 0 38.12-2.72 55-8.18 16.88-5.45 31.46-13.3 43.74-23.53v19.97z"/><path d="M1148.77 905.39V772.57l-131.99 15.86v-26.09h298.76v26.09l-131.99-15.86v347.87h-34.78V925.38z"/></svg>