<svg xmlns="http://www.w3.org/2000/svg" aria-hidden="true" style="position:absolute;width:0;height:0;overflow:hidden"><defs>
<symbol id="black-svg" viewBox="8 7 18 18"><path d="M12.123 19.98c0-.101-.014-.176-.042-.224s-.083-.073-.166-.073h-.059v-.059h1.264c.168 0 .252.079.252.237v.223h-.059c0-.228-.124-.341-.371-.341h-.552v.772h.801v.119h-.801v.831h.52c.136 0 .243-.025.321-.074s.138-.134.184-.252l.059.015-.104.282c-.036.099-.11.148-.223.148h-1.024v-1.603zm2.036 1.536c-.111-.064-.189-.16-.236-.286s-.07-.291-.07-.493v-.757c0-.101-.014-.176-.042-.224s-.083-.073-.166-.073h-.059v-.059h.267c.073 0 .128.009.165.028s.063.053.079.102a.787.787 0 0 1 .024.226v.846c0 .22.04.386.122.499s.216.169.404.169c.15 0 .27-.027.358-.08s.151-.135.188-.243a1.35 1.35 0 0 0 .056-.433v-1.113h.119v1.113c0 .206-.022.372-.065.497s-.12.22-.23.284c-.11.063-.264.095-.462.095-.19 0-.34-.032-.451-.097zm2.785.004a1.246 1.246 0 0 1-.26-.337l-.297-.505h-.208v.905h-.267V19.98c0-.101-.014-.176-.042-.224s-.083-.073-.166-.073h-.059v-.059h.772c.188 0 .359.037.512.111s.23.215.23.423c0 .263-.158.431-.475.505l.312.52c.073.123.139.208.197.257s.126.077.203.085v.059a.57.57 0 0 1-.178.03.427.427 0 0 1-.275-.094zm-.341-.99c.072-.03.134-.076.184-.14s.076-.14.076-.232c0-.097-.025-.178-.076-.242s-.112-.112-.184-.142a.51.51 0 0 0-.2-.046.915.915 0 0 0-.223.03v.787c.079.02.153.03.223.03a.541.541 0 0 0 .2-.044zm1.333.976c-.14-.091-.247-.216-.322-.374s-.113-.334-.113-.528.038-.37.113-.528a.866.866 0 0 1 .807-.51c.184 0 .346.046.485.136.14.091.247.216.322.374s.113.334.113.528-.038.37-.113.528-.183.283-.322.374-.301.136-.485.136-.346-.046-.485-.136zm.819-.095c.094-.075.166-.182.215-.319s.074-.3.074-.488-.025-.351-.074-.488c-.049-.138-.121-.244-.215-.319s-.205-.113-.334-.113-.24.038-.334.113c-.094.075-.166.182-.215.319s-.074.3-.074.488.025.351.074.488c.049.138.121.244.215.319s.205.113.334.113.24-.038.334-.113zm1.017-1.431c0-.101-.014-.176-.042-.224s-.083-.073-.166-.073h-.059v-.059h.772c.19 0 .361.041.513.122s.228.238.228.472c0 .154-.04.273-.119.356s-.168.139-.266.166a.988.988 0 0 1-.269.042h-.327v.801h-.267V19.98zm.691.649a.451.451 0 0 0 .259-.426.451.451 0 0 0-.259-.426.485.485 0 0 0-.202-.049.915.915 0 0 0-.223.03v.891c.079.02.153.03.223.03a.481.481 0 0 0 .202-.049zm.947-.649c0-.101-.014-.176-.042-.224s-.083-.073-.166-.073h-.059v-.059h1.264c.168 0 .252.079.252.237v.223H22.6c0-.228-.124-.341-.371-.341h-.552v.772h.801v.119h-.801v.831h.52c.136 0 .243-.025.321-.074s.139-.134.184-.252l.059.015-.104.282c-.036.099-.11.148-.223.148H21.41v-1.603zm-7.763 2.699v-.025h.26v.279c-.032.032-.07.056-.115.074s-.096.027-.152.027c-.057 0-.11-.009-.159-.028a.384.384 0 0 1-.211-.195l-.001-.002c-.02-.045-.03-.094-.03-.148a.36.36 0 0 1 .242-.345.432.432 0 0 1 .159-.028.763.763 0 0 1 .232.04l-.005.057h-.006c-.027-.024-.06-.042-.098-.054s-.079-.018-.122-.018a.303.303 0 0 0-.282.166.392.392 0 0 0-.04.183c0 .07.013.131.04.183a.303.303 0 0 0 .282.166c.04 0 .076-.005.11-.016s.063-.027.088-.047v-.267h-.19zm.521-.018a.374.374 0 0 1 .107-.266.38.38 0 0 1 .266-.107.377.377 0 0 1 .266.107.377.377 0 0 1 .107.266.377.377 0 0 1-.107.266.38.38 0 0 1-.266.107.374.374 0 0 1-.266-.107.377.377 0 0 1-.107-.266zm.078 0c0 .07.012.131.037.183s.059.093.104.122c.044.029.096.044.155.044a.279.279 0 0 0 .259-.167.421.421 0 0 0 .037-.183c0-.069-.012-.13-.037-.182s-.059-.093-.104-.123c-.044-.029-.096-.044-.155-.044s-.11.015-.154.044c-.044.029-.079.07-.104.122s-.037.114-.037.183zm.91 0a.374.374 0 0 1 .107-.266.38.38 0 0 1 .266-.107.377.377 0 0 1 .266.107.377.377 0 0 1 .107.266.377.377 0 0 1-.107.266.38.38 0 0 1-.266.107.374.374 0 0 1-.266-.107.377.377 0 0 1-.107-.266zm.078 0c0 .07.012.131.037.183s.059.093.104.122c.044.029.096.044.155.044a.279.279 0 0 0 .259-.167.421.421 0 0 0 .037-.183c0-.069-.012-.13-.037-.182s-.059-.093-.104-.123c-.044-.029-.096-.044-.155-.044s-.11.015-.154.044c-.044.029-.079.07-.104.122s-.037.114-.037.183zm.961.359v-.718h.226c.079 0 .148.015.207.045s.105.072.137.126c.033.054.049.116.049.188s-.016.135-.049.188c-.033.054-.079.096-.137.126s-.128.045-.207.045h-.226zm.225-.693h-.156v.669h.156c.099 0 .176-.029.232-.088s.084-.141.084-.246-.028-.187-.084-.246a.304.304 0 0 0-.232-.088zm1.204.693v-.697a.666.666 0 0 0-.064.006l-.201.026v-.052h.599v.052l-.201-.026a.64.64 0 0 0-.064-.006v.697h-.07zm.578-.718h.137c.072 0 .129.015.169.046s.06.073.06.128c0 .042-.012.078-.037.106s-.061.047-.108.056v.006c.045.009.082.03.111.064s.05.075.065.124c.013.045.026.08.038.105s.027.043.042.054a.153.153 0 0 0 .055.024v.006h-.042c-.03 0-.055-.005-.074-.016s-.036-.029-.05-.055a.501.501 0 0 1-.039-.108c-.02-.07-.046-.12-.079-.15s-.073-.044-.12-.044h-.006v-.018h.006c.11 0 .165-.051.165-.152 0-.1-.052-.15-.155-.15h-.068v.693h-.07v-.718zm.659.718.276-.718h.064l.276.718h-.075l-.127-.336h-.233l-.106.336h-.075zm.283-.665-.095.304h.216l-.115-.304h-.006zm.418-.053h.077l.28.638h.006l.235-.638h.077l-.326.732h-.023l-.326-.732zm.912.718v-.718h.313v.05l-.18-.024a.64.64 0 0 0-.064-.006v.313l.064-.003.168-.01v.047l-.168-.01a1.441 1.441 0 0 0-.064-.003V23a.604.604 0 0 0 .065-.006l.181-.024v.05h-.316zm.608-.718h.07v.697a.51.51 0 0 0 .062-.006l.17-.026v.052h-.301v-.718z"/><path d="M17.544 24.263c-2.613.071-5.514.115-8.126.14l-.139.002c-.018-1.424-.023-2.849-.032-4.274a913.62 913.62 0 0 1 .03-12.394l.001-.143c1.233-.001 2.952.043 4.203.054 1.146.021 2.929.054 4.063.089l-1.016.027c-2.255.054-4.86.092-7.11.114l.141-.141c.007.518.014 1.549.018 2.066.032 4.585.028 9.884-.018 14.46l-.14-.14c2.612.026 5.513.068 8.126.14z"/><path d="m9.418 15.819 3.246.182-3.246.182v-.363zm8.962-1.013a2.898 2.898 0 0 1-.364.171 3.312 3.312 0 0 1-1.216.213c-.458 0-.881-.075-1.268-.225s-.726-.36-1.015-.63-.515-.585-.675-.945c-.161-.36-.241-.753-.241-1.179a2.858 2.858 0 0 1 .916-2.124c.289-.27.628-.48 1.015-.63a3.48 3.48 0 0 1 1.268-.225 6.673 6.673 0 0 1 1.31.152c.213.046.393.102.54.168l-.041.458h-.049c-.219-.191-.48-.336-.786-.434s-.63-.147-.974-.147c-.513 0-.963.116-1.351.348s-.689.557-.904.974c-.216.418-.323.904-.323 1.461s.108 1.044.323 1.461c.216.417.517.742.904.974s.837.348 1.351.348c.316 0 .61-.044.88-.131s.503-.213.7-.376v.32z"/><path d="M18.38 14.486v-2.125l-2.112.254v-.417h4.78v.417l-2.112-.254v5.566h-.556v-3.121z"/></symbol>
<symbol id="white-svg" viewBox="0 0 32 32"><path fill="#fff" d="M12.123 19.98c0-.101-.014-.176-.042-.224s-.083-.073-.166-.073h-.059v-.059h1.264c.168 0 .252.079.252.237v.223h-.059c0-.228-.124-.341-.371-.341h-.552v.772h.801v.119h-.801v.831h.52c.136 0 .243-.025.321-.074s.138-.134.184-.252l.059.015-.104.282c-.036.099-.11.148-.223.148h-1.024v-1.603zm2.036 1.536c-.111-.064-.189-.16-.236-.286s-.07-.291-.07-.493v-.757c0-.101-.014-.176-.042-.224s-.083-.073-.166-.073h-.059v-.059h.267c.073 0 .128.009.165.028s.063.053.079.102a.787.787 0 0 1 .024.226v.846c0 .22.04.386.122.499s.216.169.404.169c.15 0 .27-.027.358-.08s.151-.135.188-.243a1.35 1.35 0 0 0 .056-.433v-1.113h.119v1.113c0 .206-.022.372-.065.497s-.12.22-.23.284c-.11.063-.264.095-.462.095-.19 0-.34-.032-.451-.097zm2.785.004a1.246 1.246 0 0 1-.26-.337l-.297-.505h-.208v.905h-.267V19.98c0-.101-.014-.176-.042-.224s-.083-.073-.166-.073h-.059v-.059h.772c.188 0 .359.037.512.111s.23.215.23.423c0 .263-.158.431-.475.505l.312.52c.073.123.139.208.197.257s.126.077.203.085v.059a.57.57 0 0 1-.178.03.427.427 0 0 1-.275-.094zm-.341-.99c.072-.03.134-.076.184-.14s.076-.14.076-.232c0-.097-.025-.178-.076-.242s-.112-.112-.184-.142a.51.51 0 0 0-.2-.046.915.915 0 0 0-.223.03v.787c.079.02.153.03.223.03a.541.541 0 0 0 .2-.044zm1.333.976c-.14-.091-.247-.216-.322-.374s-.113-.334-.113-.528.038-.37.113-.528a.866.866 0 0 1 .807-.51c.184 0 .346.046.485.136.14.091.247.216.322.374s.113.334.113.528-.038.37-.113.528-.183.283-.322.374-.301.136-.485.136-.346-.046-.485-.136zm.819-.095c.094-.075.166-.182.215-.319s.074-.3.074-.488-.025-.351-.074-.488c-.049-.138-.121-.244-.215-.319s-.205-.113-.334-.113-.24.038-.334.113c-.094.075-.166.182-.215.319s-.074.3-.074.488.025.351.074.488c.049.138.121.244.215.319s.205.113.334.113.24-.038.334-.113zm1.017-1.431c0-.101-.014-.176-.042-.224s-.083-.073-.166-.073h-.059v-.059h.772c.19 0 .361.041.513.122s.228.238.228.472c0 .154-.04.273-.119.356s-.168.139-.266.166a.988.988 0 0 1-.269.042h-.327v.801h-.267V19.98zm.691.649a.451.451 0 0 0 .259-.426.451.451 0 0 0-.259-.426.485.485 0 0 0-.202-.049.915.915 0 0 0-.223.03v.891c.079.02.153.03.223.03a.481.481 0 0 0 .202-.049zm.947-.649c0-.101-.014-.176-.042-.224s-.083-.073-.166-.073h-.059v-.059h1.264c.168 0 .252.079.252.237v.223H22.6c0-.228-.124-.341-.371-.341h-.552v.772h.801v.119h-.801v.831h.52c.136 0 .243-.025.321-.074s.139-.134.184-.252l.059.015-.104.282c-.036.099-.11.148-.223.148H21.41v-1.603zm-7.763 2.699v-.025h.26v.279c-.032.032-.07.056-.115.074s-.096.027-.152.027c-.057 0-.11-.009-.159-.028a.384.384 0 0 1-.211-.195l-.001-.002c-.02-.045-.03-.094-.03-.148a.36.36 0 0 1 .242-.345.432.432 0 0 1 .159-.028.763.763 0 0 1 .232.04l-.005.057h-.006c-.027-.024-.06-.042-.098-.054s-.079-.018-.122-.018a.303.303 0 0 0-.282.166.392.392 0 0 0-.04.183c0 .07.013.131.04.183a.303.303 0 0 0 .282.166c.04 0 .076-.005.11-.016s.063-.027.088-.047v-.267h-.19zm.521-.018a.374.374 0 0 1 .107-.266.38.38 0 0 1 .266-.107.377.377 0 0 1 .266.107.377.377 0 0 1 .107.266.377.377 0 0 1-.107.266.38.38 0 0 1-.266.107.374.374 0 0 1-.266-.107.377.377 0 0 1-.107-.266zm.078 0c0 .07.012.131.037.183s.059.093.104.122c.044.029.096.044.155.044a.279.279 0 0 0 .259-.167.421.421 0 0 0 .037-.183c0-.069-.012-.13-.037-.182s-.059-.093-.104-.123c-.044-.029-.096-.044-.155-.044s-.11.015-.154.044c-.044.029-.079.07-.104.122s-.037.114-.037.183zm.91 0a.374.374 0 0 1 .107-.266.38.38 0 0 1 .266-.107.377.377 0 0 1 .266.107.377.377 0 0 1 .107.266.377.377 0 0 1-.107.266.38.38 0 0 1-.266.107.374.374 0 0 1-.266-.107.377.377 0 0 1-.107-.266zm.078 0c0 .07.012.131.037.183s.059.093.104.122c.044.029.096.044.155.044a.279.279 0 0 0 .259-.167.421.421 0 0 0 .037-.183c0-.069-.012-.13-.037-.182s-.059-.093-.104-.123c-.044-.029-.096-.044-.155-.044s-.11.015-.154.044c-.044.029-.079.07-.104.122s-.037.114-.037.183zm.961.359v-.718h.226c.079 0 .148.015.207.045s.105.072.137.126c.033.054.049.116.049.188s-.016.135-.049.188c-.033.054-.079.096-.137.126s-.128.045-.207.045h-.226zm.225-.693h-.156v.669h.156c.099 0 .176-.029.232-.088s.084-.141.084-.246-.028-.187-.084-.246a.304.304 0 0 0-.232-.088zm1.204.693v-.697a.666.666 0 0 0-.064.006l-.201.026v-.052h.599v.052l-.201-.026a.64.64 0 0 0-.064-.006v.697h-.07zm.578-.718h.137c.072 0 .129.015.169.046s.06.073.06.128c0 .042-.012.078-.037.106s-.061.047-.108.056v.006c.045.009.082.03.111.064s.05.075.065.124c.013.045.026.08.038.105s.027.043.042.054a.153.153 0 0 0 .055.024v.006h-.042c-.03 0-.055-.005-.074-.016s-.036-.029-.05-.055a.501.501 0 0 1-.039-.108c-.02-.07-.046-.12-.079-.15s-.073-.044-.12-.044h-.006v-.018h.006c.11 0 .165-.051.165-.152 0-.1-.052-.15-.155-.15h-.068v.693h-.07v-.718zm.659.718.276-.718h.064l.276.718h-.075l-.127-.336h-.233l-.106.336h-.075zm.283-.665-.095.304h.216l-.115-.304h-.006zm.418-.053h.077l.28.638h.006l.235-.638h.077l-.326.732h-.023l-.326-.732zm.912.718v-.718h.313v.05l-.18-.024a.64.64 0 0 0-.064-.006v.313l.064-.003.168-.01v.047l-.168-.01a1.441 1.441 0 0 0-.064-.003V23a.604.604 0 0 0 .065-.006l.181-.024v.05h-.316zm.608-.718h.07v.697a.51.51 0 0 0 .062-.006l.17-.026v.052h-.301v-.718z" style="fill:var(--color1, #fff)"/><path fill="#fff" d="M17.544 24.263c-2.613.071-5.514.115-8.126.14l-.139.002c-.018-1.424-.023-2.849-.032-4.274a913.62 913.62 0 0 1 .03-12.394l.001-.143c1.233-.001 2.952.043 4.203.054 1.146.021 2.929.054 4.063.089l-1.016.027c-2.255.054-4.86.092-7.11.114l.141-.141c.007.518.014 1.549.018 2.066.032 4.585.028 9.884-.018 14.46l-.14-.14c2.612.026 5.513.068 8.126.14z" style="fill:var(--color1, #fff)"/><path fill="#fff" d="m9.418 15.819 3.246.182-3.246.182v-.363zm8.962-1.013a2.898 2.898 0 0 1-.364.171 3.312 3.312 0 0 1-1.216.213c-.458 0-.881-.075-1.268-.225s-.726-.36-1.015-.63-.515-.585-.675-.945c-.161-.36-.241-.753-.241-1.179a2.858 2.858 0 0 1 .916-2.124c.289-.27.628-.48 1.015-.63a3.48 3.48 0 0 1 1.268-.225 6.673 6.673 0 0 1 1.31.152c.213.046.393.102.54.168l-.041.458h-.049c-.219-.191-.48-.336-.786-.434s-.63-.147-.974-.147c-.513 0-.963.116-1.351.348s-.689.557-.904.974c-.216.418-.323.904-.323 1.461s.108 1.044.323 1.461c.216.417.517.742.904.974s.837.348 1.351.348c.316 0 .61-.044.88-.131s.503-.213.7-.376v.32z" style="fill:var(--color1, #fff)"/><path fill="#fff" d="M18.38 14.486v-2.125l-2.112.254v-.417h4.78v.417l-2.112-.254v5.566h-.556v-3.121z" style="fill:var(--color1, #fff)"/></symbol></defs></svg>